Coordinates
version=1
nRows=43
nColumns=12
inDegrees=yes

Units are S.I. units (second, meters, Newtons, ...)
Angles are in degrees

endheader
time	SC_y	SC_z	SC_x	AC_y	AC_z	AC_x	GH_y	GH_z	GH_yy	EL_x	PS_y
       0.0              -46.84          13.68          69.13          51.47         -16.58          13.75          14.37          82.96         -15.23          26.05          109.5
   0.01819              -46.84          13.68          69.13          51.47         -16.58          13.75          14.39          82.95         -15.24          26.05          109.5
   0.03638              -46.84          13.68          69.13          51.48         -16.58          13.74          14.41          82.94         -15.24          26.05          109.5
   0.05457              -46.84          13.69          69.13          51.48         -16.57          13.74          14.43          82.92         -15.24          26.05          109.5
   0.07276              -46.83          13.69          69.13          51.48         -16.57          13.74          14.45          82.91         -15.25          26.06          109.5
   0.09094              -46.83           13.7          69.13          51.49         -16.56          13.73          14.48           82.9         -15.25          26.06          109.5
    0.1091              -46.83           13.7          69.13          51.49         -16.56          13.73           14.5          82.88         -15.26          26.07          109.5
    0.1273              -46.82          13.71          69.13          51.49         -16.55          13.72          14.53          82.87         -15.26          26.07          109.5
    0.1455              -46.82          13.71          69.13           51.5         -16.55          13.72          14.56          82.85         -15.27          26.07          109.4
    0.1637              -46.82          13.72          69.13           51.5         -16.54          13.71          14.59          82.83         -15.27          26.08          109.4
    0.1819              -46.81          13.72          69.13           51.5         -16.54          13.71          14.63          82.81         -15.28          26.08          109.4
    0.2001              -46.81          13.73          69.13          51.51         -16.53           13.7          14.67          82.79         -15.28          26.09          109.4
    0.2183               -46.8          13.74          69.13          51.51         -16.52           13.7          14.71          82.77         -15.29          26.09          109.4
    0.2365               -46.8          13.75          69.13          51.52         -16.52          13.69          14.75          82.75          -15.3           26.1          109.3
    0.2546              -46.79          13.76          69.13          51.53         -16.51          13.68          14.79          82.72          -15.3          26.11          109.3
    0.2728              -46.78          13.77          69.13          51.53          -16.5          13.67          14.85          82.69         -15.31          26.11          109.3
     0.291              -46.78          13.78          69.13          51.54         -16.49          13.66           14.9          82.66         -15.32          26.12          109.3
    0.3092              -46.77          13.79          69.13          51.55         -16.48          13.65          14.96          82.63         -15.33          26.13          109.3
    0.3274              -46.76           13.8          69.13          51.56         -16.47          13.64          15.02          82.59         -15.34          26.14          109.2
    0.3456              -46.75          13.81          69.13          51.56         -16.46          13.63           15.1          82.55         -15.35          26.15          109.2
    0.3638              -46.74          13.83          69.13          51.57         -16.44          13.62          15.17          82.51         -15.36          26.16          109.1
     0.382              -46.73          13.85          69.13          51.59         -16.43          13.61          15.26          82.46         -15.38          26.17          109.1
    0.4002              -46.72          13.86          69.13           51.6         -16.41          13.59          15.36          82.41         -15.39          26.19          109.1
    0.4183              -46.71          13.88          69.13          51.61         -16.39          13.58          15.46          82.35         -15.41           26.2          109.0
    0.4365              -46.69          13.91          69.12          51.63         -16.37          13.56          15.58          82.29         -15.43          26.22          109.0
    0.4547              -46.67          13.93          69.12          51.64         -16.35          13.54          15.71          82.21         -15.45          26.24          108.9
    0.4729              -46.66          13.96          69.12          51.66         -16.33          13.51          15.86          82.13         -15.48          26.26          108.8
    0.4911              -46.63          13.99          69.12          51.68          -16.3          13.49          16.02          82.04          -15.5          26.28          108.8
    0.5093              -46.61          14.03          69.12          51.71         -16.27          13.46          16.21          81.94         -15.53          26.31          108.7
    0.5275              -46.58          14.07          69.12          51.73         -16.23          13.42          16.42          81.82         -15.57          26.34          108.6
    0.5457              -46.55          14.11          69.11          51.77         -16.19          13.38          16.66          81.69         -15.61          26.37          108.4
    0.5639              -46.52          14.17          69.11           51.8         -16.14          13.34          16.94          81.53         -15.65          26.41          108.3
     0.582              -46.48          14.23          69.11          51.84         -16.09          13.29          17.26          81.35          -15.7          26.46          108.2
    0.6002              -46.43           14.3          69.11          51.89         -16.02          13.23          17.63          81.15         -15.76          26.51          108.0
    0.6184              -46.38          14.38           69.1          51.95         -15.95          13.16          18.06          80.91         -15.83          26.58          107.8
    0.6366              -46.31          14.48           69.1          52.01         -15.86          13.08          18.58          80.62         -15.92          26.65          107.5
    0.6548              -46.23           14.6          69.09          52.09         -15.75          12.98          19.19          80.28         -16.02          26.74          107.3
     0.673              -46.14          14.74          69.09          52.18         -15.63          12.87          19.92          79.88         -16.14          26.84          106.9
    0.6912              -46.03           14.9          69.08           52.3         -15.48          12.73           20.8          79.39         -16.28          26.97          106.5
    0.7094              -45.89          15.11          69.07          52.44         -15.29          12.55          21.88          78.79         -16.46          27.12          106.0
    0.7276              -45.72          15.37          69.06          52.61         -15.06          12.34          23.21          78.05         -16.67          27.31          105.4
    0.7457              -45.51          15.68          69.04          52.82         -14.78          12.08          24.87          77.12         -16.94          27.55          104.6
    0.7639              -45.25          16.08          69.03          53.09         -14.42          11.75          26.97          75.96         -17.28          27.85          103.6
